{"asset":{"version":"2.0","generator":"THREE.GLTFExporter"},"scenes":[{"name":"AuxScene","nodes":[1]}],"scene":0,"nodes":[{"name":"chair","extras":{"name":"chair"},"mesh":0},{"name":"Scene","children":[0]}],"bufferViews":[{"buffer":0,"byteOffset":0,"byteLength":17916,"target":34962,"byteStride":12},{"buffer":0,"byteOffset":17916,"byteLength":17916,"target":34962,"byteStride":12},{"buffer":0,"byteOffset":35832,"byteLength":11944,"target":34962,"byteStride":8},{"buffer":0,"byteOffset":47776,"byteLength":18864,"target":34963}],"buffers":[{"byteLength":66640,"uri":"data:application/octet-stream;base64,"}],"accessors":[{"bufferView":0,"componentType":5126,"count":1493,"max":[0.3735739290714264,0.9909272193908691,0.3811710476875305],"min":[-0.37288913130760193,-5.3513755204903646e-8,-0.4887343645095825],"type":"VEC3"},{"bufferView":1,"componentType":5126,"count":1493,"max":[0.9991132020950317,0.9977409839630127,0.9966146349906921],"min":[-0.9991132020950317,-0.9878005981445312,-0.9981787204742432],"type":"VEC3"},{"bufferView":2,"componentType":5126,"count":1493,"max":[0.8747556209564209,1],"min":[0.125,0],"type":"VEC2"},{"bufferView":3,"componentType":5125,"count":4716,"max":[1492],"min":[0],"type":"SCALAR"}],"materials":[{"pbrMetallicRoughness":{"baseColorFactor":[0.1607843137254902,0.054901960784313725,0.03529411764705882,1],"metallicFactor":0.5,"roughnessFactor":0.5},"alphaMode":"BLEND","name":"BrownDark.052"}],"meshes":[{"primitives":[{"mode":4,"attributes":{"POSITION":0,"NORMAL":1,"TEXCOORD_0":2},"indices":3,"material":0}]}]}